<svg width="333" height="307" viewBox="0 0 333 307" fill="none" xmlns="http://www.w3.org/2000/svg">
<mask id="mask0" mask-type="alpha" maskUnits="userSpaceOnUse" x="15" y="50" width="288" height="223">
<path d="M164.522 160.123C164.522 153.886 172.062 150.763 176.472 155.173L249.502 228.203C253.029 231.73 251.84 237.71 247.231 239.62L174.2 269.87C169.591 271.779 164.522 268.391 164.522 263.403L164.522 160.123Z" fill="#C4C4C4"/>
<path d="M165.482 110.11C163.112 115.918 154.888 115.918 152.518 110.11L131.934 59.6438C130.056 55.0395 133.443 50 138.415 50H179.585C184.557 50 187.944 55.0395 186.066 59.6438L165.482 110.11Z" fill="#C4C4C4"/>
<path d="M184.668 146.976C180.258 142.567 183.381 135.027 189.618 135.027L292.898 135.026C297.886 135.026 301.274 140.096 299.365 144.705L269.115 217.736C267.206 222.345 261.225 223.534 257.698 220.007L184.668 146.976Z" fill="#C4C4C4"/>
<path d="M132.784 146.976C137.194 142.567 134.071 135.027 127.834 135.027L24.5545 135.026C19.5657 135.026 16.1782 140.096 18.0873 144.705L48.3375 217.736C50.2466 222.345 56.2268 223.534 59.7544 220.007L132.784 146.976Z" fill="#C4C4C4"/>
<path d="M152.93 160.123C152.93 153.886 145.39 150.763 140.981 155.173L67.9505 228.203C64.4228 231.73 65.6124 237.711 70.2214 239.62L143.252 269.87C147.861 271.779 152.931 268.391 152.931 263.403L152.93 160.123Z" fill="#C4C4C4"/>
</mask>
<g mask="url(#mask0)">
<rect x="-62.2742" y="-77.624" width="442" height="403" fill="url(#paint0_linear)" style="mix-blend-mode:darken"/>
</g>
<defs>
<linearGradient id="paint0_linear" x1="262.604" y1="4.49832" x2="-70.2741" y2="337.376" gradientUnits="userSpaceOnUse">
<stop stop-color="#00FFD1"/>
<stop offset="1" stop-color="#3278FF"/>
</linearGradient>
</defs>
</svg>
